<?xml version="1.0" encoding="UTF-8"?>
<svg width="40px" height="36px" viewBox="0 0 40 36" version="1.1" xmlns="http://www.w3.org/2000/svg" xmlns:xlink="http://www.w3.org/1999/xlink">
    <!-- Generator: Sketch 50.2 (55047) - http://www.bohemiancoding.com/sketch -->
    <title>鼓励</title>
    <desc>Created with Sketch.</desc>
    <defs></defs>
    <g id="Symbols" stroke="none" stroke-width="1" fill="none" fill-rule="evenodd">
        <g id="Action-患者详情" transform="translate(-74.000000, -7.000000)">
            <g id="Action">
                <g id="Group-4" transform="translate(16.000000, 6.000000)">
                    <g id="鼓励" transform="translate(58.000000, 0.000000)">
                        <rect id="Rectangle-2" fill-opacity="0" fill="#D8D8D8" x="0" y="0" width="40" height="40"></rect>
                        <text id="鼓励一下" font-family="PingFangSC-Regular, PingFang SC" font-size="10" font-weight="normal" fill="#1D202B">
                            <tspan x="0" y="35">鼓励一下</tspan>
                        </text>
                        <path d="M30.4638,11.1995249 C30.797,10.8398337 31,10.3650594 31,9.8456057 C31,8.72591449 30.0578,7.81472684 28.9,7.81472684 L24.8241333,7.81472684 C25.2278,6.63004751 25.4,5.05814727 25.4,4.38434679 L25.4,3.70783848 C25.4,2.21491686 24.1437333,1 22.6,1 L21.9,1 C21.5789333,1 21.2989333,1.2112114 21.221,1.51268409 L20.8397333,2.98800475 C20.3054,5.05408551 18.6090667,7.3336342 16.8534667,7.74793349 C16.5459333,6.99515439 15.7866667,6.4608076 14.9,6.4608076 L10.7,6.4608076 C10.3136,6.4608076 10,6.76408551 10,7.13776722 L10,19.3230404 C10,19.6967221 10.3136,20 10.7,20 L14.9,20 C15.7348667,20 16.4572667,19.5265796 16.7956,18.842399 L19.2008,19.6177435 C19.9871333,19.8713777 20.8066,20 21.6358667,20 L27.5,20 C28.6578,20 29.6,19.0888124 29.6,17.9691211 C29.6,17.7051069 29.5477333,17.4523753 29.4525333,17.2208551 C30.3429333,16.9857245 31,16.1963895 31,15.2612827 C31,14.741829 30.797,14.2670546 30.4638,13.9073634 C30.797,13.5476722 31,13.0728979 31,12.5534442 C31,12.0339905 30.797,11.5592162 30.4638,11.1995249 Z M15.6,17.9691211 C15.6,18.3423515 15.2859333,18.6460808 14.9,18.6460808 L11.4,18.6460808 L11.4,7.81472684 L14.9,7.81472684 C15.2859333,7.81472684 15.6,8.11845606 15.6,8.49168646 L15.6,17.9691211 Z M27.5,11.8764846 L28.9,11.8764846 C29.2859333,11.8764846 29.6,12.1802138 29.6,12.5534442 C29.6,12.9266746 29.2859333,13.2304038 28.9,13.2304038 L27.5,13.2304038 C27.1136,13.2304038 26.8,13.5336817 26.8,13.9073634 C26.8,14.2810451 27.1136,14.584323 27.5,14.584323 L28.9,14.584323 C29.2859333,14.584323 29.6,14.8880523 29.6,15.2612827 C29.6,15.6345131 29.2859333,15.9382423 28.9,15.9382423 L27.5,15.9382423 C27.1136,15.9382423 26.8,16.2415202 26.8,16.6152019 C26.8,16.9888836 27.1136,17.2921615 27.5,17.2921615 C27.8859333,17.2921615 28.2,17.5958907 28.2,17.9691211 C28.2,18.3423515 27.8859333,18.6460808 27.5,18.6460808 L21.6358667,18.6460808 C20.9573333,18.6460808 20.2867333,18.5409264 19.6432,18.3333254 L17,17.4812589 L17,9.10456057 C18.0980667,8.9028266 19.1728,8.23038005 20.143,7.12964371 C21.0903333,6.05463183 21.8584667,4.62940618 22.1977333,3.31655582 L22.4464667,2.35391924 L22.6,2.35391924 C23.3718667,2.35391924 24,2.96137767 24,3.70783848 L24,4.38434679 C24,5.29327791 23.706,7.03667458 23.3298667,7.81472684 L21.9,7.81472684 C21.5136,7.81472684 21.2,8.11800475 21.2,8.49168646 C21.2,8.86536817 21.5136,9.16864608 21.9,9.16864608 L28.9,9.16864608 C29.2859333,9.16864608 29.6,9.4723753 29.6,9.8456057 C29.6,10.2188361 29.2859333,10.5225653 28.9,10.5225653 L27.5,10.5225653 C27.1136,10.5225653 26.8,10.8258432 26.8,11.1995249 C26.8,11.5732067 27.1136,11.8764846 27.5,11.8764846 Z" id="Shape" fill="#000000" fill-rule="nonzero"></path>
                        <circle id="Oval" fill="#000000" fill-rule="nonzero" cx="13.5" cy="16.5" r="1"></circle>
                    </g>
                </g>
            </g>
        </g>
    </g>
</svg>