<?xml version="1.0" encoding="UTF-8"?>
<svg width="56px" height="56px" viewBox="0 0 56 56" version="1.1" xmlns="http://www.w3.org/2000/svg" xmlns:xlink="http://www.w3.org/1999/xlink">
    <!-- Generator: Sketch 50.2 (55047) - http://www.bohemiancoding.com/sketch -->
    <title>Shape</title>
    <desc>Created with Sketch.</desc>
    <defs></defs>
    <g id="LCCP-UI-Design" stroke="none" stroke-width="1" fill="none" fill-rule="evenodd">
        <g id="01b-患者列表-7天低血糖" transform="translate(-27.000000, -476.000000)" fill="#E1DCDA" fill-rule="nonzero">
            <g id="患者卡-copy-4" transform="translate(12.000000, 467.000000)">
                <g id="头像" transform="translate(15.000000, 9.000000)">
                    <g id="user">
                        <path d="M27.9995333,0 C12.5359956,0 0,12.5363689 0,27.9999067 C0,43.4630711 12.5359956,56.0003733 27.9995333,56.0003733 C43.4630711,56.0003733 56,43.4630711 56,27.9999067 C56,12.5359956 43.4630711,0 27.9995333,0 Z M28.0848414,41.2097802 L28.0848414,41.2094068 L27.9138519,41.2094068 L15.9535459,41.2094068 C15.9535459,32.4628077 23.6353806,32.4648611 25.340049,30.177783 L25.5351189,29.1348589 C23.1401457,27.921132 21.4494775,24.9948966 21.4494775,21.5724929 C21.4494775,17.0636711 24.382433,13.4079301 27.9995333,13.4079301 C31.6166336,13.4079301 34.5495892,17.0636711 34.5495892,21.5724929 C34.5495892,24.9657761 32.8889748,27.8737179 30.5259221,29.1066718 L30.7480591,30.2918382 C32.6183036,32.4680345 40.0445874,32.6099035 40.0445874,41.2097802 L28.0848414,41.2097802 Z" id="Shape"></path>
                    </g>
                </g>
            </g>
        </g>
    </g>
</svg>