<?xml version="1.0" encoding="UTF-8"?>
<svg width="40px" height="34px" viewBox="0 0 40 34" version="1.1" xmlns="http://www.w3.org/2000/svg" xmlns:xlink="http://www.w3.org/1999/xlink">
    <!-- Generator: Sketch 50.2 (55047) - http://www.bohemiancoding.com/sketch -->
    <title>复诊</title>
    <desc>Created with Sketch.</desc>
    <defs></defs>
    <g id="Symbols" stroke="none" stroke-width="1" fill="none" fill-rule="evenodd">
        <g id="Action-患者详情" transform="translate(-16.000000, -8.000000)">
            <g id="Action">
                <g id="Group-4" transform="translate(16.000000, 6.000000)">
                    <g id="复诊">
                        <rect id="Rectangle-2" fill-opacity="0" fill="#D8D8D8" x="0" y="0" width="40" height="40"></rect>
                        <text id="提醒复诊" font-family="PingFangSC-Regular, PingFang SC" font-size="10" font-weight="normal" fill="#1D202B">
                            <tspan x="0" y="35">提醒复诊</tspan>
                        </text>
                        <path d="M23.7955457,15.1864143 L23.7955457,14.6789532 C23.7955457,13.6523385 22.963029,12.8198218 21.9364143,12.8198218 C20.8910913,12.8268374 20.0585746,13.6663697 20.0609131,14.7 L20.0609131,15.1560134 L20.0632517,15.207461 L20.0632517,15.5418708 C20.0632517,15.9815145 19.7077951,16.336971 19.2681514,16.3393096 C18.8308463,16.3393096 18.4753898,15.9861915 18.4753898,15.5488864 L18.4753898,12.6116927 C18.7957684,12.4994432 19.1605791,12.3006682 19.618931,12.0060134 C20.8232739,11.2342984 21.5224944,9.37750557 21.4663697,7.95334076 C21.4383073,7.26581292 21.2535635,6.76536748 20.8957684,6.40991091 C20.3017817,5.82060134 19.4224944,5.76915367 18.8214922,6.16436526 C18.5806236,6.3233853 18.5151448,6.64844098 18.6741648,6.89164811 C18.8331849,7.1325167 19.1582405,7.19799555 19.4014477,7.0389755 C19.6002227,6.90801782 19.9276169,6.92672606 20.1591314,7.155902 C20.3087973,7.3032294 20.4023385,7.55345212 20.4187082,7.99309577 C20.4608018,9.07817372 19.8948775,10.57951 19.0506682,11.122049 C18.608686,11.4050111 18.2789532,11.5804009 18.0544543,11.6435412 C17.832294,11.5804009 17.5002227,11.4050111 17.0582405,11.122049 C16.2140312,10.5818486 15.6481069,9.08051225 15.6902004,7.99309577 C15.7065702,7.55111359 15.8001114,7.3032294 15.9497773,7.155902 C16.1789532,6.92906459 16.508686,6.90801782 16.707461,7.0389755 C16.9483296,7.19799555 17.2733853,7.1325167 17.4347439,6.89164811 C17.5937639,6.65077951 17.5282851,6.32572383 17.2874165,6.16436526 C16.6887528,5.76681514 15.8094655,5.82060134 15.2131403,6.40991091 C14.8553452,6.76302895 14.6706013,7.26347439 14.642539,7.95334076 C14.5864143,9.37516704 15.2856347,11.2319599 16.4899777,12.0060134 C16.8501114,12.2375278 17.1541203,12.4105791 17.4207127,12.5275056 L17.4207127,15.5465479 C17.4230512,16.566147 18.2485523,17.386971 19.2634744,17.386971 C20.280735,17.3846325 21.1038976,16.5591314 21.1038976,15.5418708 L21.1038976,15.1981069 L21.101559,15.1373051 L21.101559,14.6953229 C21.101559,14.2393096 21.4687082,13.8698218 21.9223831,13.8651448 C22.3760579,13.8651448 22.7385301,14.2276169 22.7385301,14.6742762 L22.7385301,15.1981069 C22.2848552,15.4038976 21.9714922,15.8599109 21.9714922,16.3907572 C21.9714922,17.113363 22.5584633,17.7003341 23.281069,17.7003341 C24.0036748,17.7003341 24.5906459,17.113363 24.5906459,16.3907572 C24.6,15.8528953 24.2679287,15.3851893 23.7955457,15.1864143 Z" id="Shape" fill="#2C2C2C" fill-rule="nonzero"></path>
                        <path d="M24.4690423,2.63786192 L15.2949889,2.63786192 C13.4849666,2.63786192 12.0187082,4.10412027 12.0187082,5.91414254 L12.0187082,17.7073497 C12.0187082,19.5173719 13.4849666,20.9836303 15.2949889,20.9836303 L24.4667038,20.9836303 C26.2767261,20.9836303 27.7429844,19.5173719 27.7429844,17.7073497 L27.7429844,5.91414254 C27.7453229,4.10412027 26.2767261,2.63786192 24.4690423,2.63786192 Z M26.4334076,17.7073497 C26.4334076,18.7924276 25.5541203,19.6717149 24.4690423,19.6717149 L15.2949889,19.6717149 C14.2099109,19.6717149 13.3306236,18.7924276 13.3306236,17.7073497 L13.3306236,5.91414254 C13.3306236,4.82906459 14.2099109,3.94977728 15.2949889,3.94977728 L24.4667038,3.94977728 C25.5517817,3.94977728 26.431069,4.82906459 26.431069,5.91414254 L26.431069,17.7073497 L26.4334076,17.7073497 Z" id="Shape" fill="#2C2C2C" fill-rule="nonzero"></path>
                    </g>
                </g>
            </g>
        </g>
    </g>
</svg>